<svg width="70" height="71" viewBox="0 0 70 71" fill="none" xmlns="http://www.w3.org/2000/svg">
<path d="M62.6623 12.1355C58.3082 8.13542 52.0898 6.02115 44.6797 6.02115C42.7104 6.02115 40.7083 6.28666 38.7499 6.79664C39.1945 6.06148 39.7365 5.27738 40.3955 4.47387C41.3532 3.30612 41.183 1.58329 40.0154 0.62555C38.8478 -0.332051 37.1249 -0.162106 36.1672 1.00564C34.7167 2.774 33.7006 4.4725 32.9904 5.93898C30.4417 3.21206 26.6376 0.0053789 20.9517 0.0053789C14.9788 0.0053789 11.7757 2.19703 8.94975 4.13083C6.92289 5.51787 5.17221 6.7157 2.36291 7.10098C1.35516 7.23907 0.507227 7.92528 0.162285 8.88233C-0.182793 9.83925 0.0317187 10.9087 0.719414 11.6585C3.0085 14.1541 9.18941 19.9589 17.1236 19.9589C19.432 19.9589 21.3648 19.5937 23.0312 19.0441C20.1079 24.2105 17.9654 31.8727 19.5802 42.7894C19.8011 44.2834 21.1902 45.3155 22.6853 45.0943C24.1793 44.8733 25.2112 43.483 24.9901 41.9892C23.1483 29.5388 26.8043 22.2409 30.1953 18.3111C33.881 14.04 39.2957 11.49 44.6796 11.49C53.7357 11.49 64.5311 14.9864 64.5311 31.6429C64.5311 37.0981 63.8695 41.1936 62.4492 44.5316C61.8579 45.9213 62.5051 47.5271 63.8945 48.1184C64.244 48.267 64.6069 48.3374 64.964 48.3374C66.0272 48.3374 67.0387 47.7132 67.4812 46.6728C69.1998 42.6348 70 37.8589 70 31.6429C70 23.1716 67.5314 16.6084 62.6623 12.1355V12.1355ZM8.11385 11.0218C9.61406 10.303 10.8663 9.44604 12.0381 8.64416C14.5239 6.9432 16.6707 5.47412 20.9517 5.47412C24.5304 5.47412 27.0162 7.5415 29.0064 9.68215C27.914 10.2043 26.9108 10.8388 25.9219 11.4645C23.4627 13.0202 21.1397 14.4897 17.1235 14.4897C14.258 14.4898 11.0703 13.2365 8.11385 11.0218V11.0218ZM58.237 54.549C59.1166 55.7766 58.8346 57.4848 57.6071 58.3645C55.6866 59.7406 53.4654 61.103 50.816 62.5296C49.7737 63.0908 48.5293 63.7172 47.2028 64.1056C40.8133 65.9769 36.3038 69.4038 36.259 69.4383C35.7667 69.8162 35.1773 70.0053 34.5883 70.0053C33.994 70.0053 33.4003 69.8128 32.9067 69.4275C32.8651 69.3952 28.3567 65.928 21.9204 63.7036C20.9586 63.3713 20.0517 62.9514 19.2916 62.5844C13.0298 59.5612 0 53.2701 0 33.2562C0 30.0442 0.361758 26.9786 1.07516 24.1445C1.44361 22.68 2.9292 21.7918 4.39428 22.1602C5.85867 22.529 6.74707 24.015 6.37834 25.4794C5.77486 27.8775 5.46875 30.494 5.46875 33.2562C5.46875 49.8377 15.6101 54.7341 21.6692 57.6596C22.3177 57.9726 23.0133 58.2953 23.7065 58.5348C28.6409 60.2402 32.5266 62.5546 34.6065 63.9376C36.7196 62.5717 40.6685 60.3207 45.6658 58.8572C46.5047 58.6115 47.3907 58.1628 48.223 57.7145C50.6651 56.3995 52.6926 55.158 54.4217 53.919C55.6493 53.0396 57.3575 53.3215 58.237 54.549ZM58.7891 39.9282C58.7891 41.4384 57.5649 42.6627 56.0547 42.6627C54.5445 42.6627 53.3203 41.4384 53.3203 39.9282C53.3203 38.418 54.5445 37.1938 56.0547 37.1938C57.5649 37.1938 58.7891 38.418 58.7891 39.9282ZM49.4922 50.4558C47.982 50.4558 46.7578 49.2316 46.7578 47.7214C46.7578 46.2111 47.982 44.9869 49.4922 44.9869C51.0024 44.9869 52.2266 46.2111 52.2266 47.7214C52.2266 49.2316 51.0024 50.4558 49.4922 50.4558Z" fill="#E2674B"/>
</svg>
